{"glyphs":{"0":{"ha":526,"x_min":35,"x_max":490,"o":"m 192 0 q 43 171 35 0 l 78 826 q 243 997 86 997 l 333 997 q 482 826 490 997 l 447 171 q 282 0 439 0 l 192 0 m 263 876 q 208 818 211 876 l 174 179 q 229 121 171 121 l 263 121 q 317 179 314 121 l 351 818 q 296 876 354 876 l 263 876 z "},"1":{"ha":329,"x_min":39,"x_max":285,"o":"m 64 776 l 39 868 q 128 922 90 888 q 188 997 165 957 l 200 997 l 285 950 l 235 0 l 106 0 l 147 801 l 64 776 z "},"2":{"ha":501,"x_min":46,"x_max":456,"o":"m 403 119 l 397 0 l 46 0 l 61 307 q 67 349 63 332 q 84 380 72 365 q 124 421 96 394 l 261 550 q 286 576 276 565 q 299 595 296 588 q 304 611 303 603 q 307 633 306 619 l 317 818 q 264 876 319 876 l 256 876 q 197 818 200 876 l 192 715 l 61 715 l 67 826 q 231 997 75 997 l 299 997 q 447 826 456 997 l 435 588 q 424 539 433 560 q 383 488 415 518 l 232 346 q 199 310 203 319 q 193 290 194 300 q 192 264 192 281 l 183 119 l 403 119 z "},"3":{"ha":507,"x_min":25,"x_max":461,"o":"m 351 513 q 446 386 451 485 l 435 169 q 269 0 426 0 l 182 0 q 33 169 25 0 l 38 233 l 168 233 l 164 179 q 213 121 161 121 l 243 121 q 304 179 301 121 l 315 385 q 243 450 319 450 l 208 450 l 214 563 l 232 563 q 311 628 308 563 l 321 817 q 267 875 325 875 l 249 875 q 193 817 197 875 l 189 715 l 58 715 l 64 826 q 229 997 72 997 l 306 997 q 453 826 461 997 l 442 628 q 351 513 438 533 z "},"4":{"ha":499,"x_min":11,"x_max":471,"o":"m 465 233 l 390 233 l 378 0 l 250 0 l 263 233 l 33 233 l 11 346 l 299 997 l 429 997 l 396 346 l 471 346 l 465 233 m 300 732 l 293 732 l 150 346 l 272 346 l 300 732 z "},"5":{"ha":494,"x_min":28,"x_max":451,"o":"m 40 233 l 171 233 l 167 179 q 215 121 164 121 l 231 121 q 292 179 289 121 l 304 407 q 254 472 308 472 l 57 472 l 83 997 l 451 997 l 446 874 l 200 874 l 185 593 l 288 593 q 435 417 444 593 l 422 176 q 257 0 414 0 l 185 0 q 36 169 28 0 l 40 233 z "},"6":{"ha":524,"x_min":35,"x_max":479,"o":"m 335 715 l 339 804 q 285 876 343 876 l 263 876 q 208 818 211 876 l 192 515 l 276 571 l 315 571 q 457 400 465 571 l 444 168 q 286 0 436 0 l 185 0 q 43 168 35 0 l 78 826 q 236 997 86 997 l 329 997 q 471 826 479 997 l 465 715 l 335 715 m 189 450 l 175 181 q 228 121 171 121 l 253 121 q 315 181 311 121 l 325 378 q 271 450 329 450 l 189 450 z "},"7":{"ha":413,"x_min":33,"x_max":414,"o":"m 63 0 l 276 874 l 33 874 l 39 997 l 381 997 l 414 925 l 192 0 l 63 0 z "},"8":{"ha":521,"x_min":28,"x_max":482,"o":"m 157 508 q 69 629 65 529 l 81 826 q 246 997 89 997 l 325 997 q 474 826 482 997 l 463 628 q 371 507 458 528 q 460 388 465 479 l 449 169 q 283 0 440 0 l 185 0 q 36 169 28 0 l 47 389 q 157 508 53 481 m 222 121 l 257 121 q 319 193 315 121 l 329 379 q 258 450 333 450 q 178 381 182 449 l 168 193 q 222 121 164 121 m 210 803 l 201 638 q 256 565 197 565 l 271 565 q 333 636 329 575 l 342 803 q 288 875 346 875 l 272 875 q 210 803 214 875 z "},"9":{"ha":521,"x_min":43,"x_max":485,"o":"m 186 233 l 183 193 q 238 121 179 121 l 257 121 q 311 179 308 121 l 325 421 l 239 365 l 210 365 q 63 543 53 365 l 78 822 q 243 997 86 997 l 328 997 q 476 822 485 997 l 442 178 q 276 0 433 0 l 199 0 q 51 178 43 0 l 56 233 l 186 233 m 328 486 l 344 817 q 285 876 349 876 l 269 876 q 207 817 211 876 l 194 558 q 249 486 190 486 l 328 486 z "}," ":{"ha":218,"x_min":0,"x_max":0,"o":""},"!":{"ha":265,"x_min":40,"x_max":231,"o":"m 231 997 l 176 269 l 67 269 l 86 997 l 231 997 m 188 169 l 179 0 l 40 0 l 49 169 l 188 169 z "},"\"":{"ha":374,"x_min":29,"x_max":360,"o":"m 229 997 l 360 997 l 322 583 l 225 583 l 229 997 m 33 997 l 163 997 l 126 583 l 29 583 l 33 997 z "},"#":{"ha":633,"x_min":-12,"x_max":606,"o":"m 453 997 l 546 997 l 504 760 l 606 760 l 590 665 l 489 665 l 432 339 l 532 339 l 518 244 l 415 244 l 374 0 l 282 0 l 322 244 l 185 244 l 144 0 l 51 0 l 93 244 l -12 244 l 1 339 l 110 339 l 167 665 l 60 665 l 74 760 l 182 760 l 222 997 l 315 997 l 274 760 l 411 760 l 453 997 m 201 339 l 339 339 l 397 665 l 260 665 l 201 339 z "},"$":{"ha":510,"x_min":21,"x_max":467,"o":"m 322 729 l 326 817 q 274 876 331 876 l 253 876 q 193 817 197 876 l 185 647 q 194 610 183 619 q 228 585 204 600 l 347 517 q 403 480 388 493 q 428 448 419 467 q 435 376 438 429 l 424 168 q 265 0 415 4 l 260 -106 l 167 -106 l 172 0 q 31 183 21 3 l 33 233 l 164 233 l 160 179 q 215 121 157 121 l 239 121 q 293 179 290 121 l 303 344 q 293 382 304 372 q 260 407 282 392 l 140 478 q 83 515 100 500 q 58 555 65 531 q 53 618 51 579 l 64 826 q 224 997 72 994 l 229 1103 l 322 1103 l 317 997 q 458 826 467 993 l 453 729 l 322 729 z "},"%":{"ha":843,"x_min":51,"x_max":790,"o":"m 643 997 l 282 0 l 199 0 l 560 997 l 643 997 m 203 464 l 160 464 q 57 568 51 464 l 74 893 q 188 997 79 997 l 231 997 q 333 893 339 997 l 317 568 q 203 464 311 464 m 214 921 l 194 921 q 163 882 164 921 l 146 578 q 175 539 144 539 l 194 539 q 228 578 226 539 l 244 882 q 214 921 246 921 m 654 0 l 611 0 q 508 104 503 0 l 525 429 q 639 533 531 533 l 682 533 q 785 429 790 533 l 768 104 q 654 0 763 0 m 665 457 l 646 457 q 613 418 615 457 l 597 114 q 626 75 596 75 l 646 75 q 679 114 678 75 l 694 418 q 665 457 697 457 z "},"&":{"ha":508,"x_min":28,"x_max":497,"o":"m 158 515 q 76 622 72 536 l 88 826 q 253 997 96 997 l 304 997 q 453 826 461 997 l 449 739 l 325 739 l 329 828 q 272 886 332 886 l 258 886 q 210 828 213 878 l 199 631 q 256 558 196 558 l 497 558 l 492 460 l 433 460 l 418 169 q 251 0 410 0 l 186 0 q 36 169 28 0 l 49 396 q 158 515 53 488 m 310 460 l 251 460 q 169 388 174 460 l 158 169 q 215 111 156 111 l 240 111 q 294 169 292 111 l 310 460 z "},"'":{"ha":163,"x_min":22,"x_max":156,"o":"m 26 997 l 156 997 l 118 583 l 22 583 l 26 997 z "},"(":{"ha":279,"x_min":35,"x_max":311,"o":"m 246 -254 l 183 -254 q 43 -85 35 -254 l 92 826 q 249 997 100 997 l 311 997 l 306 892 l 265 892 q 204 821 208 892 l 158 -79 q 211 -150 154 -150 l 251 -150 l 246 -254 z "},")":{"ha":279,"x_min":-32,"x_max":243,"o":"m -32 -254 l 29 -254 q 186 -85 178 -254 l 235 826 q 94 997 243 997 l 32 997 l 26 892 l 67 892 q 119 821 124 892 l 74 -79 q 13 -150 69 -150 l -26 -150 l -32 -254 z "},"*":{"ha":469,"x_min":36,"x_max":435,"o":"m 121 1000 l 210 900 l 221 908 l 240 1051 l 365 1008 l 290 883 l 296 874 l 435 907 l 433 785 l 300 804 l 294 794 l 371 685 l 256 619 l 225 761 l 213 765 l 108 660 l 38 761 l 163 821 l 160 833 l 36 892 l 121 1000 z "},"+":{"ha":518,"x_min":50,"x_max":467,"o":"m 319 417 l 311 261 l 192 261 l 200 417 l 50 417 l 57 533 l 207 533 l 215 694 l 335 694 l 326 533 l 467 533 l 460 417 l 319 417 z "},",":{"ha":226,"x_min":32,"x_max":194,"o":"m 32 -165 l 103 0 l 39 0 l 49 172 l 194 172 l 185 0 l 111 -165 l 32 -165 z "},"-":{"ha":333,"x_min":13,"x_max":319,"o":"m 13 390 l 19 501 l 319 501 l 313 390 l 13 390 z "},".":{"ha":219,"x_min":35,"x_max":183,"o":"m 183 169 l 174 0 l 35 0 l 44 169 l 183 169 z "},"/":{"ha":390,"x_min":-29,"x_max":419,"o":"m 419 1067 l 61 -69 l -29 -69 l 326 1067 l 419 1067 z "},":":{"ha":217,"x_min":18,"x_max":194,"o":"m 165 169 l 157 0 l 18 0 l 26 169 l 165 169 m 194 715 l 186 546 l 47 546 l 56 715 l 194 715 z "},";":{"ha":218,"x_min":33,"x_max":199,"o":"m 33 -165 l 104 0 l 40 0 l 50 172 l 196 172 l 186 0 l 113 -165 l 33 -165 m 199 715 l 190 546 l 51 546 l 60 715 l 199 715 z "},"<":{"ha":419,"x_min":13,"x_max":372,"o":"m 335 67 l 343 229 l 136 429 l 364 631 l 372 796 l 17 474 l 13 386 l 335 67 z "},"=":{"ha":503,"x_min":44,"x_max":457,"o":"m 57 533 l 63 647 l 457 647 l 451 533 l 57 533 m 44 308 l 50 422 l 444 422 l 439 308 l 44 308 z "},">":{"ha":419,"x_min":46,"x_max":406,"o":"m 46 64 l 401 386 l 406 475 l 83 793 l 75 631 l 282 431 l 54 229 l 46 64 z "},"?":{"ha":511,"x_min":46,"x_max":482,"o":"m 151 269 l 160 438 q 167 485 161 468 q 181 511 174 501 q 210 536 189 521 l 307 607 q 328 633 324 621 q 335 672 333 644 l 342 815 q 289 876 346 876 l 238 876 q 179 815 183 876 l 176 743 l 46 743 l 50 826 q 215 997 58 997 l 326 997 q 474 826 482 997 l 463 624 q 456 576 461 593 q 439 549 450 560 q 411 525 428 538 l 317 453 q 294 428 299 440 q 288 389 289 417 l 282 269 l 151 269 m 283 169 l 275 0 l 136 0 l 144 169 l 283 169 z "},"@":{"ha":760,"x_min":42,"x_max":711,"o":"m 521 229 l 588 229 l 615 764 q 581 875 619 839 q 456 911 542 911 l 333 911 q 215 866 257 910 q 169 746 174 822 l 135 88 l 669 88 l 665 0 l 42 0 l 81 740 q 157 934 86 869 q 333 997 228 999 l 456 997 q 656 934 601 997 q 706 771 711 871 l 672 147 l 419 147 l 432 389 l 326 389 l 314 147 l 217 147 l 247 717 q 368 843 253 843 l 436 843 q 547 717 553 843 l 521 229 m 438 479 l 450 711 q 410 754 451 754 l 388 754 q 344 711 346 754 l 332 479 l 438 479 z "},"A":{"ha":519,"x_min":28,"x_max":490,"o":"m 158 0 l 28 0 l 71 826 q 236 997 79 997 l 333 997 q 482 826 490 997 l 439 0 l 308 0 l 326 365 l 176 365 l 158 0 m 333 486 l 351 818 q 297 876 354 876 l 261 876 q 201 818 204 876 l 183 486 l 333 486 z "},"B":{"ha":519,"x_min":35,"x_max":483,"o":"m 365 513 q 467 399 471 482 l 453 149 q 297 0 446 0 l 35 0 l 86 997 l 310 997 q 474 817 483 997 l 464 625 q 365 519 460 539 l 365 513 m 171 121 l 269 121 q 324 164 321 121 l 335 385 q 261 456 339 456 l 189 456 l 171 121 m 194 576 l 256 576 q 335 649 331 576 l 343 804 q 289 876 347 876 l 211 876 l 194 576 z "},"C":{"ha":492,"x_min":28,"x_max":476,"o":"m 438 233 l 433 169 q 268 0 425 0 l 185 0 q 36 169 28 0 l 71 828 q 236 997 79 997 l 319 997 q 468 828 476 997 l 463 715 l 332 715 l 338 818 q 282 876 340 876 l 256 876 q 201 818 204 876 l 167 179 q 215 121 164 121 l 249 121 q 303 179 300 121 l 307 233 l 438 233 z "},"D":{"ha":526,"x_min":35,"x_max":497,"o":"m 35 0 l 86 997 l 314 997 q 488 806 497 997 l 453 144 q 289 0 446 0 l 35 0 m 171 121 l 269 121 q 324 165 321 121 l 357 804 q 303 876 361 876 l 211 876 l 171 121 z "},"E":{"ha":418,"x_min":35,"x_max":411,"o":"m 35 0 l 86 997 l 411 997 l 406 876 l 211 876 l 194 574 l 367 574 l 361 453 l 189 453 l 171 121 l 365 121 l 360 0 l 35 0 z "},"F":{"ha":413,"x_min":35,"x_max":411,"o":"m 367 574 l 361 453 l 189 453 l 165 0 l 35 0 l 86 997 l 411 997 l 406 876 l 211 876 l 194 574 l 367 574 z "},"G":{"ha":506,"x_min":28,"x_max":486,"o":"m 254 365 l 261 486 l 460 486 l 435 0 l 179 0 q 36 168 28 0 l 71 826 q 231 997 79 997 l 319 997 q 478 824 486 997 l 472 715 l 342 715 l 346 804 q 294 876 350 876 l 261 876 q 200 804 204 876 l 168 193 q 221 121 164 121 l 310 121 l 322 365 l 254 365 z "},"H":{"ha":544,"x_min":35,"x_max":508,"o":"m 326 0 l 350 453 l 189 453 l 165 0 l 35 0 l 86 997 l 217 997 l 194 574 l 356 574 l 378 997 l 508 997 l 457 0 l 326 0 z "},"I":{"ha":253,"x_min":35,"x_max":217,"o":"m 35 0 l 86 997 l 217 997 l 165 0 l 35 0 z "},"J":{"ha":350,"x_min":-11,"x_max":314,"o":"m -6 121 l 79 121 q 142 193 138 121 l 183 997 l 314 997 l 271 168 q 111 0 263 0 l -11 0 l -6 121 z "},"K":{"ha":507,"x_min":35,"x_max":479,"o":"m 165 0 l 35 0 l 86 997 l 217 997 l 165 0 m 467 0 l 336 0 l 197 488 l 197 496 l 360 997 l 479 997 l 317 501 l 467 0 z "},"L":{"ha":386,"x_min":35,"x_max":351,"o":"m 346 0 l 35 0 l 86 997 l 217 997 l 171 121 l 351 121 l 346 0 z "},"M":{"ha":653,"x_min":35,"x_max":617,"o":"m 321 411 l 472 997 l 617 997 l 565 0 l 435 0 l 482 653 l 360 181 l 260 181 l 185 653 l 165 0 l 35 0 l 86 997 l 231 997 l 321 411 z "},"N":{"ha":524,"x_min":35,"x_max":488,"o":"m 332 515 l 357 997 l 488 997 l 436 0 l 306 0 l 315 199 l 199 653 l 165 0 l 35 0 l 86 997 l 217 997 l 332 515 z "},"O":{"ha":547,"x_min":28,"x_max":518,"o":"m 186 0 q 36 169 28 0 l 71 826 q 236 997 79 997 l 361 997 q 510 826 518 997 l 475 169 q 308 0 467 0 l 186 0 m 222 121 l 289 121 q 344 179 342 121 l 379 818 q 324 876 382 876 l 261 876 q 201 818 204 876 l 167 179 q 222 121 164 121 z "},"P":{"ha":499,"x_min":35,"x_max":482,"o":"m 86 997 l 324 997 q 474 826 482 997 l 458 531 q 292 361 449 361 l 183 361 l 165 0 l 35 0 l 86 997 m 190 482 l 274 482 q 328 540 325 482 l 343 818 q 288 876 346 876 l 211 876 l 190 482 z "},"Q":{"ha":567,"x_min":28,"x_max":546,"o":"m 540 0 l 185 0 q 36 168 28 0 l 71 826 q 235 997 79 997 l 361 997 q 508 826 517 997 l 471 121 l 546 121 l 540 0 m 340 121 l 378 818 q 322 876 381 876 l 261 876 q 201 818 204 876 l 167 179 q 222 121 164 121 l 340 121 z "},"R":{"ha":514,"x_min":35,"x_max":492,"o":"m 86 997 l 342 997 q 483 826 492 997 l 471 581 q 383 415 464 450 l 454 0 l 331 0 l 265 403 l 186 403 l 165 0 l 35 0 l 86 997 m 192 517 l 278 517 q 340 589 336 517 l 351 804 q 297 876 356 876 l 211 876 l 192 517 z "},"S":{"ha":489,"x_min":21,"x_max":467,"o":"m 322 729 l 326 817 q 274 876 331 876 l 253 876 q 193 817 197 876 l 185 651 q 194 614 183 624 q 228 589 204 604 l 347 521 q 403 484 388 497 q 428 452 419 471 q 435 381 438 433 l 424 168 q 257 0 415 0 l 178 0 q 31 183 21 0 l 33 233 l 164 233 l 160 179 q 215 121 157 121 l 239 121 q 293 179 290 121 l 303 349 q 294 386 304 376 q 260 411 283 396 l 140 482 q 83 519 100 504 q 58 559 65 535 q 53 622 51 583 l 64 826 q 229 997 72 997 l 310 997 q 458 826 467 997 l 453 729 l 322 729 z "},"T":{"ha":408,"x_min":33,"x_max":419,"o":"m 289 876 l 243 0 l 113 0 l 158 876 l 33 876 l 39 997 l 419 997 l 414 876 l 289 876 z "},"U":{"ha":547,"x_min":35,"x_max":511,"o":"m 511 997 l 469 189 q 301 0 460 0 l 192 0 q 44 190 35 0 l 86 997 l 217 997 l 175 186 q 228 121 171 121 l 282 121 q 339 186 335 121 l 381 997 l 511 997 z "},"V":{"ha":497,"x_min":38,"x_max":510,"o":"m 510 997 l 300 0 l 144 0 l 38 997 l 168 997 l 235 236 l 379 997 l 510 997 z "},"W":{"ha":757,"x_min":38,"x_max":769,"o":"m 769 997 l 574 0 l 432 0 l 381 578 l 272 0 l 131 0 l 38 997 l 167 997 l 221 250 l 353 997 l 454 997 l 508 250 l 640 997 l 769 997 z "},"X":{"ha":454,"x_min":-6,"x_max":460,"o":"m 406 0 l 279 0 l 225 379 l 222 379 l 114 0 l -6 0 l 143 504 l 53 997 l 181 997 l 235 629 l 238 629 l 339 997 l 460 997 l 318 504 l 406 0 z "},"Y":{"ha":476,"x_min":39,"x_max":489,"o":"m 279 0 l 149 0 l 168 367 l 39 997 l 168 997 l 244 564 l 249 564 l 360 997 l 489 997 l 299 367 l 279 0 z "},"Z":{"ha":399,"x_min":-10,"x_max":381,"o":"m 143 121 l 364 121 l 358 0 l -1 0 l -10 47 l 239 875 l 54 875 l 60 997 l 356 997 l 381 940 l 143 121 z "},"[":{"ha":278,"x_min":35,"x_max":310,"o":"m 35 -254 l 100 997 l 310 997 l 304 899 l 207 899 l 153 -156 l 250 -156 l 244 -254 l 35 -254 z "},"\\":{"ha":390,"x_min":29,"x_max":360,"o":"m 121 1067 l 360 -69 l 268 -69 l 29 1067 l 121 1067 z "},"]":{"ha":278,"x_min":-32,"x_max":242,"o":"m -32 -254 l -26 -156 l 69 -156 l 124 899 l 26 899 l 32 997 l 242 997 l 176 -254 l -32 -254 z "},"_":{"ha":374,"x_min":-1,"x_max":375,"o":"m -1 -99 l 1 0 l 375 0 l 371 -99 l -1 -99 z "},"`":{"ha":207,"x_min":15,"x_max":189,"o":"m 15 944 l 136 944 l 189 781 l 96 781 l 15 944 z "},"a":{"ha":519,"x_min":28,"x_max":490,"o":"m 158 0 l 28 0 l 71 826 q 236 997 79 997 l 333 997 q 482 826 490 997 l 439 0 l 308 0 l 326 365 l 176 365 l 158 0 m 333 486 l 351 818 q 297 876 354 876 l 261 876 q 201 818 204 876 l 183 486 l 333 486 z "},"b":{"ha":519,"x_min":35,"x_max":483,"o":"m 365 513 q 467 399 471 482 l 453 149 q 297 0 446 0 l 35 0 l 86 997 l 310 997 q 474 817 483 997 l 464 625 q 365 519 460 539 l 365 513 m 171 121 l 269 121 q 324 164 321 121 l 335 385 q 261 456 339 456 l 189 456 l 171 121 m 194 576 l 256 576 q 335 649 331 576 l 343 804 q 289 876 347 876 l 211 876 l 194 576 z "},"c":{"ha":493,"x_min":28,"x_max":476,"o":"m 438 233 l 433 169 q 268 0 425 0 l 185 0 q 36 169 28 0 l 71 828 q 236 997 79 997 l 319 997 q 468 828 476 997 l 463 715 l 332 715 l 338 818 q 282 876 340 876 l 256 876 q 201 818 204 876 l 167 179 q 215 121 164 121 l 249 121 q 303 179 300 121 l 307 233 l 438 233 z "},"d":{"ha":526,"x_min":35,"x_max":497,"o":"m 35 0 l 86 997 l 314 997 q 488 806 497 997 l 453 144 q 289 0 446 0 l 35 0 m 171 121 l 269 121 q 324 165 321 121 l 357 804 q 303 876 361 876 l 211 876 l 171 121 z "},"e":{"ha":418,"x_min":35,"x_max":411,"o":"m 35 0 l 86 997 l 411 997 l 406 876 l 211 876 l 194 574 l 367 574 l 361 453 l 189 453 l 171 121 l 365 121 l 360 0 l 35 0 z "},"f":{"ha":413,"x_min":35,"x_max":411,"o":"m 367 574 l 361 453 l 189 453 l 165 0 l 35 0 l 86 997 l 411 997 l 406 876 l 211 876 l 194 574 l 367 574 z "},"g":{"ha":507,"x_min":28,"x_max":486,"o":"m 254 365 l 261 486 l 460 486 l 435 0 l 179 0 q 36 168 28 0 l 71 826 q 231 997 79 997 l 319 997 q 478 824 486 997 l 472 715 l 342 715 l 346 804 q 294 876 350 876 l 261 876 q 200 804 204 876 l 168 193 q 221 121 164 121 l 310 121 l 322 365 l 254 365 z "},"h":{"ha":544,"x_min":35,"x_max":508,"o":"m 326 0 l 350 453 l 189 453 l 165 0 l 35 0 l 86 997 l 217 997 l 194 574 l 356 574 l 378 997 l 508 997 l 457 0 l 326 0 z "},"i":{"ha":253,"x_min":35,"x_max":217,"o":"m 35 0 l 86 997 l 217 997 l 165 0 l 35 0 z "},"j":{"ha":350,"x_min":-11,"x_max":314,"o":"m -6 121 l 79 121 q 142 193 138 121 l 183 997 l 314 997 l 271 168 q 111 0 263 0 l -11 0 l -6 121 z "},"k":{"ha":507,"x_min":35,"x_max":479,"o":"m 165 0 l 35 0 l 86 997 l 217 997 l 165 0 m 467 0 l 336 0 l 197 488 l 197 496 l 360 997 l 479 997 l 317 501 l 467 0 z "},"l":{"ha":385,"x_min":35,"x_max":351,"o":"m 346 0 l 35 0 l 86 997 l 217 997 l 171 121 l 351 121 l 346 0 z "},"m":{"ha":653,"x_min":35,"x_max":617,"o":"m 321 411 l 472 997 l 617 997 l 565 0 l 435 0 l 482 653 l 360 181 l 260 181 l 185 653 l 165 0 l 35 0 l 86 997 l 231 997 l 321 411 z "},"n":{"ha":524,"x_min":35,"x_max":488,"o":"m 332 515 l 357 997 l 488 997 l 436 0 l 306 0 l 315 199 l 199 653 l 165 0 l 35 0 l 86 997 l 217 997 l 332 515 z "},"o":{"ha":547,"x_min":28,"x_max":518,"o":"m 186 0 q 36 169 28 0 l 71 826 q 236 997 79 997 l 361 997 q 510 826 518 997 l 475 169 q 308 0 467 0 l 186 0 m 222 121 l 289 121 q 344 179 342 121 l 379 818 q 324 876 382 876 l 261 876 q 201 818 204 876 l 167 179 q 222 121 164 121 z "},"p":{"ha":500,"x_min":35,"x_max":482,"o":"m 86 997 l 324 997 q 474 826 482 997 l 458 531 q 292 361 449 361 l 183 361 l 165 0 l 35 0 l 86 997 m 190 482 l 274 482 q 328 540 325 482 l 343 818 q 288 876 346 876 l 211 876 l 190 482 z "},"q":{"ha":568,"x_min":28,"x_max":546,"o":"m 540 0 l 185 0 q 36 168 28 0 l 71 826 q 235 997 79 997 l 361 997 q 508 826 517 997 l 471 121 l 546 121 l 540 0 m 340 121 l 378 818 q 322 876 381 876 l 261 876 q 201 818 204 876 l 167 179 q 222 121 164 121 l 340 121 z "},"r":{"ha":514,"x_min":35,"x_max":492,"o":"m 86 997 l 342 997 q 483 826 492 997 l 471 581 q 383 415 464 450 l 454 0 l 331 0 l 265 403 l 186 403 l 165 0 l 35 0 l 86 997 m 192 517 l 278 517 q 340 589 336 517 l 351 804 q 297 876 356 876 l 211 876 l 192 517 z "},"s":{"ha":490,"x_min":21,"x_max":467,"o":"m 322 729 l 326 817 q 274 876 331 876 l 253 876 q 193 817 197 876 l 185 651 q 194 614 183 624 q 228 589 204 604 l 347 521 q 403 484 388 497 q 428 452 419 471 q 435 381 438 433 l 424 168 q 257 0 415 0 l 178 0 q 31 183 21 0 l 33 233 l 164 233 l 160 179 q 215 121 157 121 l 239 121 q 293 179 290 121 l 303 349 q 294 386 304 376 q 260 411 283 396 l 140 482 q 83 519 100 504 q 58 559 65 535 q 53 622 51 583 l 64 826 q 229 997 72 997 l 310 997 q 458 826 467 997 l 453 729 l 322 729 z "},"t":{"ha":408,"x_min":33,"x_max":419,"o":"m 289 876 l 243 0 l 113 0 l 158 876 l 33 876 l 39 997 l 419 997 l 414 876 l 289 876 z "},"u":{"ha":547,"x_min":35,"x_max":511,"o":"m 511 997 l 469 189 q 301 0 460 0 l 192 0 q 44 190 35 0 l 86 997 l 217 997 l 175 186 q 228 121 171 121 l 282 121 q 339 186 335 121 l 381 997 l 511 997 z "},"v":{"ha":499,"x_min":38,"x_max":510,"o":"m 510 997 l 300 0 l 144 0 l 38 997 l 168 997 l 235 236 l 379 997 l 510 997 z "},"w":{"ha":758,"x_min":38,"x_max":769,"o":"m 769 997 l 574 0 l 432 0 l 381 578 l 272 0 l 131 0 l 38 997 l 167 997 l 221 250 l 353 997 l 454 997 l 508 250 l 640 997 l 769 997 z "},"x":{"ha":453,"x_min":-6,"x_max":460,"o":"m 406 0 l 279 0 l 225 379 l 222 379 l 114 0 l -6 0 l 143 504 l 53 997 l 181 997 l 235 629 l 238 629 l 339 997 l 460 997 l 318 504 l 406 0 z "},"y":{"ha":476,"x_min":39,"x_max":489,"o":"m 279 0 l 149 0 l 168 367 l 39 997 l 168 997 l 244 564 l 249 564 l 360 997 l 489 997 l 299 367 l 279 0 z "},"z":{"ha":399,"x_min":-10,"x_max":381,"o":"m 143 121 l 364 121 l 358 0 l -1 0 l -10 47 l 239 875 l 54 875 l 60 997 l 356 997 l 381 940 l 143 121 z "},"{":{"ha":310,"x_min":6,"x_max":342,"o":"m 115 421 q 194 301 199 393 l 174 -86 q 231 -157 171 -157 l 282 -157 l 276 -253 l 203 -253 q 60 -82 51 -253 l 79 289 q 6 361 83 361 l 11 474 q 93 546 89 474 l 108 826 q 268 997 117 997 l 342 997 l 336 901 l 285 901 q 222 831 225 901 l 206 528 q 115 421 201 440 z "},"|":{"ha":258,"x_min":38,"x_max":219,"o":"m 38 -111 l 100 1108 l 219 1108 l 157 -111 l 38 -111 z "},"}":{"ha":310,"x_min":-32,"x_max":307,"o":"m 197 421 q 117 528 113 440 l 133 831 q 76 901 136 901 l 26 901 l 32 997 l 106 997 q 247 826 256 997 l 232 546 q 307 474 228 474 l 301 361 q 218 289 222 361 l 199 -82 q 40 -253 190 -253 l -32 -253 l -26 -157 l 22 -157 q 85 -86 82 -157 l 106 301 q 197 421 110 393 z "},"€":{"ha":522,"x_min":7,"x_max":493,"o":"m 328 622 l 324 542 l 194 542 l 192 483 l 275 483 l 271 401 l 188 401 l 175 179 q 229 121 172 121 l 263 121 q 319 176 317 121 l 322 217 l 453 217 l 450 168 q 283 0 442 0 l 192 0 q 44 175 36 0 l 57 401 l 7 401 l 11 483 l 61 483 l 64 542 l 14 542 l 18 622 l 68 622 l 79 826 q 243 997 88 997 l 335 997 q 485 826 493 997 l 482 772 l 351 772 l 353 817 q 296 876 357 876 l 269 876 q 210 818 213 876 l 199 622 l 328 622 z "},"‚":{"ha":219,"x_min":-31,"x_max":132,"o":"m -31 -206 l 40 -26 l -24 -26 l -14 161 l 78 161 q 129 106 132 161 l 122 -26 l 49 -206 l -31 -206 z "},"ƒ":{"ha":426,"x_min":-133,"x_max":426,"o":"m -115 -137 l -47 -137 q -3 -93 -11 -137 l 111 579 l 56 579 l 74 688 l 128 688 l 157 856 q 201 966 172 935 q 306 997 229 997 l 426 997 l 408 881 l 325 881 q 276 838 285 881 l 251 688 l 374 688 l 356 579 l 233 579 l 114 -112 q 70 -223 99 -192 q -31 -254 42 -254 l -133 -254 l -115 -137 z "},"„":{"ha":435,"x_min":-17,"x_max":361,"o":"m 199 -206 l 271 -26 l 206 -26 l 215 161 l 307 161 q 358 106 361 161 l 351 -26 l 278 -206 l 199 -206 m -17 -206 l 54 -26 l -10 -26 l 0 161 l 90 161 q 143 106 146 161 l 136 -26 l 61 -206 l -17 -206 z "},"…":{"ha":663,"x_min":35,"x_max":625,"o":"m 183 169 l 174 0 l 35 0 l 44 169 l 183 169 m 404 169 l 394 0 l 256 0 l 265 169 l 404 169 m 625 169 l 615 0 l 476 0 l 486 169 l 625 169 z "},"†":{"ha":486,"x_min":38,"x_max":476,"o":"m 471 586 l 476 715 l 324 715 l 339 997 l 210 997 l 194 715 l 43 715 l 38 586 l 189 586 l 144 -253 l 274 -253 l 318 586 l 471 586 z "},"‡":{"ha":486,"x_min":6,"x_max":476,"o":"m 13 129 l 6 0 l 157 0 l 144 -253 l 274 -253 l 286 0 l 439 0 l 446 129 l 293 129 l 318 586 l 471 586 l 476 715 l 324 715 l 339 997 l 210 997 l 194 715 l 43 715 l 38 586 l 189 586 l 164 129 l 13 129 z "},"ˆ":{"ha":436,"x_min":67,"x_max":383,"o":"m 229 861 l 168 781 l 67 781 l 192 936 l 272 936 l 383 781 l 282 781 l 229 861 z "},"‰":{"ha":1175,"x_min":51,"x_max":1122,"o":"m 643 997 l 281 0 l 197 0 l 560 997 l 643 997 m 203 464 l 158 464 q 57 568 51 464 l 74 893 q 186 997 79 997 l 231 997 q 332 893 338 997 l 315 568 q 203 464 310 464 m 214 921 l 193 921 q 163 882 164 921 l 146 578 q 174 539 144 539 l 194 539 q 226 578 225 539 l 243 882 q 214 921 244 921 m 654 0 l 610 0 q 508 104 503 0 l 525 429 q 638 533 531 533 l 682 533 q 783 429 789 533 l 767 104 q 654 0 761 0 m 665 457 l 644 457 q 613 418 615 457 l 597 114 q 625 75 596 75 l 646 75 q 678 114 676 75 l 693 418 q 665 457 696 457 m 988 0 l 943 0 q 842 104 836 0 l 858 429 q 971 533 864 533 l 1015 533 q 1117 429 1122 533 l 1100 104 q 988 0 1094 0 m 999 457 l 978 457 q 946 418 949 457 l 931 114 q 958 75 929 75 l 979 75 q 1011 114 1010 75 l 1026 418 q 999 457 1029 457 z "},"Š":{"ha":490,"x_min":21,"x_max":467,"o":"m 322 729 l 326 817 q 274 876 331 876 l 253 876 q 193 817 197 876 l 185 651 q 194 614 183 624 q 228 589 204 604 l 347 521 q 403 484 388 497 q 428 452 419 471 q 435 381 438 433 l 424 168 q 257 0 415 0 l 178 0 q 31 183 21 0 l 33 233 l 164 233 l 160 179 q 215 121 157 121 l 239 121 q 293 179 290 121 l 303 349 q 294 386 304 376 q 260 411 283 396 l 140 482 q 83 519 100 504 q 58 559 65 535 q 53 622 51 583 l 64 826 q 229 997 72 997 l 310 997 q 458 826 467 997 l 453 729 l 322 729 m 258 1138 l 319 1218 l 421 1218 l 296 1063 l 215 1063 l 104 1218 l 206 1218 l 258 1138 z "},"‹":{"ha":314,"x_min":17,"x_max":288,"o":"m 258 194 l 133 483 l 288 772 l 175 772 l 17 483 l 146 194 l 258 194 z "},"Œ":{"ha":728,"x_min":28,"x_max":725,"o":"m 679 121 l 674 0 l 399 0 l 400 42 l 344 0 l 183 0 q 36 171 28 0 l 71 826 q 235 997 79 997 l 396 997 l 449 956 l 450 997 l 725 997 l 719 875 l 526 875 l 510 574 l 682 574 l 676 453 l 504 453 l 486 121 l 679 121 m 222 121 l 306 121 q 361 181 357 121 l 393 817 q 339 876 397 876 l 261 876 q 201 818 204 876 l 167 179 q 222 121 164 121 z "},"":{"ha":399,"x_min":-10,"x_max":393,"o":"m 143 121 l 364 121 l 358 0 l -1 0 l -10 47 l 239 875 l 54 875 l 60 997 l 356 997 l 381 940 l 143 121 m 231 1133 l 292 1214 l 393 1214 l 268 1058 l 188 1058 l 76 1214 l 178 1214 l 231 1133 z "},"‘":{"ha":218,"x_min":31,"x_max":193,"o":"m 193 999 l 122 819 l 186 819 l 176 632 l 85 632 q 33 688 31 632 l 40 819 l 114 999 l 193 999 z "},"’":{"ha":206,"x_min":11,"x_max":174,"o":"m 11 632 l 82 811 l 18 811 l 28 999 l 119 999 q 171 943 174 999 l 164 811 l 90 632 l 11 632 z "},"“":{"ha":435,"x_min":32,"x_max":408,"o":"m 194 999 l 122 819 l 186 819 l 176 632 l 86 632 q 35 688 32 632 l 42 819 l 115 999 l 194 999 m 408 999 l 338 819 l 401 819 l 392 632 l 301 632 q 249 688 246 632 l 256 819 l 331 999 l 408 999 z "},"”":{"ha":435,"x_min":25,"x_max":403,"o":"m 240 632 l 313 811 l 247 811 l 257 999 l 349 999 q 400 943 403 999 l 393 811 l 319 632 l 240 632 m 25 632 l 96 811 l 32 811 l 42 999 l 132 999 q 185 943 188 999 l 178 811 l 103 632 l 25 632 z "},"•":{"ha":261,"x_min":-6,"x_max":186,"o":"m 186 657 l 174 404 l -6 404 l 6 657 l 186 657 z "},"–":{"ha":389,"x_min":-1,"x_max":390,"o":"m -1 403 l 1 501 l 390 501 l 386 403 l -1 403 z "},"—":{"ha":639,"x_min":-1,"x_max":640,"o":"m -1 403 l 1 501 l 640 501 l 636 403 l -1 403 z "},"˜":{"ha":400,"x_min":58,"x_max":358,"o":"m 358 913 q 321 820 354 851 q 246 788 288 789 q 220 792 232 788 q 198 801 208 796 q 179 810 188 806 q 160 815 171 815 q 125 781 133 815 l 58 781 q 91 869 61 840 q 163 901 121 899 q 186 897 176 901 q 207 888 196 893 q 229 878 218 882 q 251 874 240 874 q 275 885 265 876 q 288 913 285 894 l 358 913 z "},"™":{"ha":657,"x_min":38,"x_max":631,"o":"m 267 926 l 269 997 l 40 997 l 38 926 l 114 926 l 88 417 l 163 417 l 189 926 l 267 926 m 458 657 l 546 997 l 631 997 l 601 417 l 525 417 l 553 797 l 481 522 l 422 522 l 379 797 l 368 417 l 292 417 l 321 997 l 406 997 l 458 657 z "},"š":{"ha":490,"x_min":21,"x_max":467,"o":"m 322 729 l 326 817 q 274 876 331 876 l 253 876 q 193 817 197 876 l 185 651 q 194 614 183 624 q 228 589 204 604 l 347 521 q 403 484 388 497 q 428 452 419 471 q 435 381 438 433 l 424 168 q 257 0 415 0 l 178 0 q 31 183 21 0 l 33 233 l 164 233 l 160 179 q 215 121 157 121 l 239 121 q 293 179 290 121 l 303 349 q 294 386 304 376 q 260 411 283 396 l 140 482 q 83 519 100 504 q 58 559 65 535 q 53 622 51 583 l 64 826 q 229 997 72 997 l 310 997 q 458 826 467 997 l 453 729 l 322 729 m 244 1133 l 306 1214 l 407 1214 l 282 1058 l 201 1058 l 90 1214 l 192 1214 l 244 1133 z "},"›":{"ha":315,"x_min":26,"x_max":299,"o":"m 26 194 l 139 194 l 299 483 l 168 772 l 56 772 l 183 483 l 26 194 z "},"œ":{"ha":728,"x_min":28,"x_max":725,"o":"m 679 121 l 674 0 l 399 0 l 400 42 l 344 0 l 183 0 q 36 171 28 0 l 71 826 q 235 997 79 997 l 396 997 l 449 956 l 450 997 l 725 997 l 719 875 l 526 875 l 510 574 l 682 574 l 676 453 l 504 453 l 486 121 l 679 121 m 222 121 l 306 121 q 361 181 357 121 l 393 817 q 339 876 397 876 l 261 876 q 201 818 204 876 l 167 179 q 222 121 164 121 z "},"":{"ha":399,"x_min":-10,"x_max":393,"o":"m 143 121 l 364 121 l 358 0 l -1 0 l -10 47 l 239 875 l 54 875 l 60 997 l 356 997 l 381 940 l 143 121 m 231 1147 l 292 1228 l 393 1228 l 268 1072 l 188 1072 l 76 1228 l 178 1228 l 231 1147 z "},"Ÿ":{"ha":476,"x_min":39,"x_max":489,"o":"m 279 0 l 149 0 l 168 367 l 39 997 l 168 997 l 244 564 l 249 564 l 360 997 l 489 997 l 299 367 l 279 0 m 211 1201 l 204 1063 l 94 1063 l 101 1201 l 211 1201 m 401 1201 l 394 1063 l 285 1063 l 292 1201 l 401 1201 z "},"¡":{"ha":265,"x_min":36,"x_max":226,"o":"m 36 0 l 90 728 l 200 728 l 181 0 l 36 0 m 79 828 l 88 997 l 226 997 l 218 828 l 79 828 z "},"¢":{"ha":474,"x_min":36,"x_max":436,"o":"m 308 710 l 311 761 q 258 815 314 815 l 246 815 q 188 761 190 815 l 167 351 q 219 297 164 297 l 232 297 q 290 351 288 297 l 293 399 l 410 399 l 406 340 q 268 199 399 199 l 264 199 l 260 115 l 165 115 l 169 199 l 167 199 q 43 340 36 199 l 67 772 q 203 914 74 914 l 207 914 l 211 997 l 306 997 l 301 914 l 306 914 q 429 772 436 914 l 425 710 l 308 710 z "},"£":{"ha":535,"x_min":3,"x_max":518,"o":"m 479 250 l 475 168 q 310 0 467 0 l 26 0 l 51 486 l 3 486 l 8 593 l 57 593 l 69 826 q 235 997 78 997 l 361 997 q 510 826 518 997 l 506 739 l 375 739 l 379 818 q 322 876 382 876 l 260 876 q 200 818 203 876 l 188 593 l 338 593 l 332 486 l 182 486 l 163 121 l 290 121 q 344 179 342 121 l 349 250 l 479 250 z "},"¤":{"ha":522,"x_min":7,"x_max":493,"o":"m 328 622 l 324 542 l 194 542 l 192 483 l 275 483 l 271 401 l 188 401 l 175 179 q 229 121 172 121 l 263 121 q 319 176 317 121 l 322 217 l 453 217 l 450 168 q 283 0 442 0 l 192 0 q 44 175 36 0 l 57 401 l 7 401 l 11 483 l 61 483 l 64 542 l 14 542 l 18 622 l 68 622 l 79 826 q 243 997 88 997 l 335 997 q 485 826 493 997 l 482 772 l 351 772 l 353 817 q 296 876 357 876 l 269 876 q 210 818 213 876 l 199 622 l 328 622 z "},"¥":{"ha":476,"x_min":39,"x_max":489,"o":"m 376 240 l 372 172 l 288 172 l 279 0 l 149 0 l 157 172 l 72 172 l 76 240 l 161 240 l 163 285 l 78 285 l 82 353 l 167 353 l 168 367 l 39 997 l 168 997 l 244 564 l 249 564 l 360 997 l 489 997 l 299 367 l 297 353 l 382 353 l 378 285 l 293 285 l 292 240 l 376 240 z "},"¦":{"ha":286,"x_min":49,"x_max":236,"o":"m 210 483 l 236 997 l 114 997 l 88 483 l 210 483 m 171 -253 l 197 261 l 75 261 l 49 -253 l 171 -253 z "},"§":{"ha":467,"x_min":29,"x_max":436,"o":"m 308 799 l 311 844 q 263 899 314 899 q 204 844 207 899 l 199 744 q 205 719 197 725 q 229 704 213 713 l 321 668 q 359 652 342 660 q 388 635 376 644 q 406 610 400 625 q 410 569 411 594 l 406 479 q 363 374 401 404 q 386 347 379 363 q 392 307 393 332 l 383 142 q 244 0 376 0 l 160 0 q 36 142 29 0 l 40 217 l 158 217 l 154 151 q 206 97 151 97 q 261 151 258 97 l 267 243 q 263 279 268 265 q 231 304 257 293 l 143 338 q 108 351 125 343 q 78 369 92 358 q 58 397 64 381 q 53 435 51 413 l 57 524 q 101 629 61 604 q 78 659 85 643 q 72 699 71 675 l 81 856 q 219 997 88 997 l 306 997 q 429 856 436 997 l 426 799 l 308 799 m 288 522 q 238 575 290 575 q 179 522 182 575 l 178 485 q 231 431 175 431 q 286 485 283 431 l 288 522 z "},"¨":{"ha":381,"x_min":50,"x_max":357,"o":"m 167 919 l 160 781 l 50 781 l 57 919 l 167 919 m 357 919 l 350 781 l 240 781 l 247 919 l 357 919 z "},"©":{"ha":842,"x_min":35,"x_max":806,"o":"m 483 617 l 486 683 q 433 736 489 736 q 376 683 379 736 l 357 313 q 408 260 354 260 q 467 313 464 260 l 471 372 l 581 372 l 576 306 q 438 164 569 164 l 367 164 q 242 306 235 164 l 263 690 q 401 832 269 832 l 472 832 q 597 690 604 832 l 593 617 l 483 617 m 235 0 q 46 218 35 0 l 75 776 q 286 997 86 997 l 606 997 q 794 776 806 997 l 765 218 q 554 0 754 0 l 235 0 m 250 100 l 544 100 q 658 221 651 100 l 688 775 q 588 897 694 897 l 293 897 q 181 775 188 897 l 151 221 q 250 100 144 100 z "},"ª":{"ha":408,"x_min":22,"x_max":385,"o":"m 126 319 l 22 319 l 49 842 q 214 997 57 997 l 228 997 q 376 842 385 997 l 350 319 l 246 319 l 257 529 l 138 529 l 126 319 m 261 622 l 272 843 q 219 906 276 906 l 214 906 q 153 843 157 906 l 142 622 l 261 622 z "},"«":{"ha":526,"x_min":15,"x_max":500,"o":"m 258 194 l 133 483 l 288 772 l 174 772 l 15 483 l 144 194 l 258 194 m 471 194 l 346 483 l 500 772 l 386 772 l 228 483 l 357 194 l 471 194 z "},"¬":{"ha":567,"x_min":57,"x_max":510,"o":"m 57 417 l 63 533 l 510 533 l 497 289 l 378 289 l 385 417 l 57 417 z "},"®":{"ha":836,"x_min":35,"x_max":800,"o":"m 571 169 l 468 169 l 419 419 l 367 419 l 353 169 l 238 169 l 272 819 l 496 819 q 592 703 599 819 l 583 535 q 518 426 579 451 l 571 169 m 371 515 l 426 515 q 469 565 467 515 l 475 668 q 438 717 478 717 l 382 717 l 371 515 m 235 0 q 46 218 35 0 l 75 776 q 286 997 86 997 l 600 997 q 789 776 800 997 l 760 218 q 549 0 749 0 l 235 0 m 250 100 l 539 100 q 653 221 646 100 l 682 775 q 582 897 689 897 l 293 897 q 181 775 188 897 l 151 221 q 250 100 144 100 z "},"¯":{"ha":389,"x_min":21,"x_max":365,"o":"m 361 836 l 365 935 l 25 935 l 21 836 l 361 836 z "},"°":{"ha":372,"x_min":38,"x_max":333,"o":"m 40 857 q 48 798 38 825 q 76 751 58 771 q 120 720 94 732 q 176 708 146 708 q 235 720 207 708 q 283 751 263 732 q 316 798 303 771 q 332 857 329 825 q 323 915 333 888 q 294 962 313 942 q 249 994 275 982 q 192 1006 222 1006 q 134 994 161 1006 q 88 962 107 982 q 55 915 68 942 q 40 857 42 888 m 103 857 q 130 917 104 893 q 189 942 156 942 q 245 917 222 942 q 267 857 268 893 q 238 799 264 824 q 179 775 213 775 q 123 799 146 775 q 103 857 100 824 z "},"±":{"ha":492,"x_min":42,"x_max":474,"o":"m 326 567 l 318 411 l 199 411 l 207 567 l 57 567 l 64 683 l 214 683 l 222 844 l 342 844 l 333 683 l 474 683 l 467 567 l 326 567 m 42 185 l 49 303 l 401 303 l 394 185 l 42 185 z "},"²":{"ha":322,"x_min":39,"x_max":294,"o":"m 267 539 l 263 464 l 39 464 l 50 654 q 54 686 50 674 q 82 714 58 699 l 172 774 q 192 791 189 783 q 197 814 196 799 l 201 894 q 178 921 203 921 l 158 921 q 132 894 133 921 l 129 854 l 47 854 l 50 900 q 140 997 56 997 l 208 997 q 289 900 294 997 l 283 786 q 277 756 282 767 q 256 733 272 744 l 160 668 q 140 651 144 658 q 136 628 136 644 l 131 539 l 267 539 z "},"³":{"ha":342,"x_min":26,"x_max":307,"o":"m 246 738 q 299 678 300 722 l 292 549 q 201 464 286 464 l 111 464 q 32 549 26 464 l 35 599 l 124 599 l 121 567 q 149 540 119 540 l 174 540 q 203 569 201 540 l 208 664 q 183 701 210 701 l 144 703 l 149 768 l 176 769 q 207 801 206 769 l 213 896 q 186 921 214 921 l 171 921 q 142 896 143 921 l 139 857 l 50 857 l 53 894 q 143 997 58 997 l 222 997 q 301 894 307 997 l 296 793 q 246 738 293 747 z "},"´":{"ha":206,"x_min":7,"x_max":200,"o":"m 100 781 l 7 781 l 79 944 l 200 944 l 100 781 z "},"µ":{"ha":546,"x_min":35,"x_max":522,"o":"m 385 997 l 507 997 l 463 139 q 494 100 460 100 l 522 100 l 517 0 l 428 0 l 378 56 q 264 0 328 0 l 165 0 l 153 -253 l 35 -253 l 100 997 l 222 997 l 179 174 q 231 121 176 121 l 339 121 l 385 997 z "},"¶":{"ha":638,"x_min":56,"x_max":599,"o":"m 443 -139 l 497 897 l 267 897 q 204 825 208 897 l 196 657 q 250 585 192 585 l 303 585 l 315 818 l 422 818 l 372 -139 l 265 -139 l 297 472 l 206 472 q 65 650 56 472 l 74 826 q 233 997 83 997 l 599 997 l 539 -139 l 443 -139 z "},"·":{"ha":221,"x_min":54,"x_max":203,"o":"m 203 558 l 193 389 l 54 389 l 64 558 l 203 558 z "},"¸":{"ha":303,"x_min":60,"x_max":238,"o":"m 63 -190 l 125 -190 q 163 -157 160 -190 l 163 -137 q 131 -99 165 -99 l 76 -99 l 83 36 l 154 36 l 150 -43 l 163 -43 q 233 -124 238 -43 l 231 -176 q 150 -253 226 -251 l 60 -253 l 63 -190 z "},"¹":{"ha":218,"x_min":28,"x_max":192,"o":"m 40 853 l 28 915 q 110 997 82 940 l 192 997 l 163 464 l 74 464 l 96 869 l 40 853 z "},"º":{"ha":340,"x_min":26,"x_max":314,"o":"m 178 464 l 133 464 q 32 568 26 464 l 50 893 q 163 997 56 997 l 207 997 q 308 893 314 997 l 290 568 q 178 464 285 464 m 190 921 l 169 921 q 138 882 140 921 l 122 578 q 149 539 119 539 l 169 539 q 203 578 200 539 l 218 882 q 190 921 221 921 z "},"»":{"ha":526,"x_min":25,"x_max":511,"o":"m 267 772 l 394 483 l 238 194 l 351 194 l 511 483 l 381 772 l 267 772 m 54 772 l 182 483 l 25 194 l 139 194 l 299 483 l 168 772 l 54 772 z "},"¼":{"ha":693,"x_min":43,"x_max":621,"o":"m 619 1039 l 121 -42 l 43 -42 l 539 1039 l 619 1039 m 565 100 l 561 0 l 474 0 l 478 100 l 322 100 l 313 175 l 471 511 l 588 511 l 569 176 l 621 176 l 617 100 l 565 100 m 501 403 l 493 403 l 408 176 l 482 176 l 501 403 m 74 853 l 61 915 q 142 997 117 940 l 224 997 l 196 464 l 107 464 l 128 869 l 74 853 z "},"½":{"ha":740,"x_min":43,"x_max":688,"o":"m 621 1039 l 121 -42 l 43 -42 l 540 1039 l 621 1039 m 75 853 l 63 915 q 143 997 117 940 l 224 997 l 196 464 l 108 464 l 129 869 l 75 853 m 661 75 l 657 0 l 433 0 l 443 190 q 449 222 444 210 q 475 250 453 235 l 565 310 q 586 327 583 319 q 590 350 589 335 l 594 431 q 571 457 596 457 l 551 457 q 525 431 526 457 l 522 390 l 440 390 l 443 436 q 533 533 449 533 l 603 533 q 682 436 688 533 l 676 322 q 670 292 675 303 q 649 269 665 281 l 553 204 q 534 188 538 194 q 529 164 531 181 l 525 75 l 661 75 z "},"¾":{"ha":778,"x_min":51,"x_max":706,"o":"m 706 1039 l 206 -42 l 128 -42 l 625 1039 l 706 1039 m 651 100 l 647 0 l 558 0 l 563 100 l 407 100 l 399 175 l 557 511 l 674 511 l 656 176 l 706 176 l 701 100 l 651 100 m 586 403 l 578 403 l 493 176 l 567 176 l 586 403 m 271 738 q 322 678 325 722 l 315 549 q 226 464 311 464 l 136 464 q 56 549 51 464 l 58 599 l 147 599 l 146 567 q 174 540 144 540 l 199 540 q 228 569 226 540 l 233 664 q 208 701 235 701 l 169 703 l 174 768 l 201 769 q 233 801 232 769 l 238 896 q 210 921 239 921 l 194 921 q 165 896 167 921 l 164 857 l 75 857 l 76 894 q 167 997 82 997 l 246 997 q 325 894 331 997 l 321 793 q 271 738 318 747 z "},"¿":{"ha":511,"x_min":28,"x_max":463,"o":"m 358 728 l 350 560 q 342 513 349 529 q 328 486 336 496 q 300 461 321 476 l 203 390 q 181 365 186 376 q 175 325 176 353 l 168 186 q 208 122 164 122 l 272 122 q 331 186 326 122 l 332 219 l 463 219 l 460 171 q 300 0 451 0 l 178 0 q 36 171 28 0 l 47 374 q 54 421 49 404 q 71 449 60 438 q 99 472 82 460 l 193 544 q 216 569 211 557 q 222 608 221 581 l 228 728 l 358 728 m 226 828 l 235 997 l 374 997 l 365 828 l 226 828 z "},"À":{"ha":519,"x_min":28,"x_max":490,"o":"m 158 0 l 28 0 l 71 826 q 236 997 79 997 l 333 997 q 482 826 490 997 l 439 0 l 308 0 l 326 365 l 176 365 l 158 0 m 333 486 l 351 818 q 297 876 354 876 l 261 876 q 201 818 204 876 l 183 486 l 333 486 m 181 1226 l 301 1226 l 354 1063 l 261 1063 l 181 1226 z "},"Á":{"ha":519,"x_min":28,"x_max":490,"o":"m 158 0 l 28 0 l 71 826 q 236 997 79 997 l 333 997 q 482 826 490 997 l 439 0 l 308 0 l 326 365 l 176 365 l 158 0 m 333 486 l 351 818 q 297 876 354 876 l 261 876 q 201 818 204 876 l 183 486 l 333 486 m 271 1063 l 178 1063 l 250 1226 l 371 1226 l 271 1063 z "},"Â":{"ha":519,"x_min":28,"x_max":490,"o":"m 158 0 l 28 0 l 71 826 q 236 997 79 997 l 333 997 q 482 826 490 997 l 439 0 l 308 0 l 326 365 l 176 365 l 158 0 m 333 486 l 351 818 q 297 876 354 876 l 261 876 q 201 818 204 876 l 183 486 l 333 486 m 281 1143 l 219 1063 l 118 1063 l 243 1218 l 324 1218 l 435 1063 l 333 1063 l 281 1143 z "},"Ã":{"ha":519,"x_min":28,"x_max":490,"o":"m 158 0 l 28 0 l 71 826 q 236 997 79 997 l 333 997 q 482 826 490 997 l 439 0 l 308 0 l 326 365 l 176 365 l 158 0 m 333 486 l 351 818 q 297 876 354 876 l 261 876 q 201 818 204 876 l 183 486 l 333 486 m 428 1194 q 390 1102 424 1133 q 315 1069 357 1071 q 290 1074 301 1069 q 267 1083 278 1078 q 249 1092 257 1088 q 229 1097 240 1097 q 194 1063 203 1097 l 128 1063 q 160 1151 131 1122 q 232 1183 190 1181 q 256 1179 246 1183 q 276 1169 265 1175 q 299 1160 288 1164 q 321 1156 310 1156 q 344 1167 335 1158 q 357 1194 354 1176 l 428 1194 z "},"Ä":{"ha":519,"x_min":28,"x_max":490,"o":"m 158 0 l 28 0 l 71 826 q 236 997 79 997 l 333 997 q 482 826 490 997 l 439 0 l 308 0 l 326 365 l 176 365 l 158 0 m 333 486 l 351 818 q 297 876 354 876 l 261 876 q 201 818 204 876 l 183 486 l 333 486 m 239 1201 l 232 1063 l 122 1063 l 129 1201 l 239 1201 m 429 1201 l 422 1063 l 313 1063 l 319 1201 l 429 1201 z "},"Å":{"ha":519,"x_min":28,"x_max":490,"o":"m 158 0 l 28 0 l 71 826 q 236 997 79 997 l 333 997 q 482 826 490 997 l 439 0 l 308 0 l 326 365 l 176 365 l 158 0 m 333 486 l 351 818 q 297 876 354 876 l 261 876 q 201 818 204 876 l 183 486 l 333 486 m 390 1133 q 360 1057 389 1088 q 288 1026 331 1026 q 215 1057 247 1026 q 185 1133 183 1088 q 215 1211 183 1181 q 288 1242 247 1242 q 360 1211 331 1242 q 390 1133 389 1181 m 335 1133 q 320 1168 333 1154 q 288 1182 307 1182 q 255 1168 268 1182 q 243 1133 242 1154 q 255 1099 242 1113 q 288 1085 268 1085 q 320 1099 307 1085 q 335 1133 333 1113 z "},"Æ":{"ha":693,"x_min":28,"x_max":685,"o":"m 160 0 l 28 0 l 71 826 q 236 997 79 997 l 685 997 l 679 876 l 485 876 l 468 574 l 640 574 l 635 453 l 463 453 l 444 121 l 639 121 l 633 0 l 308 0 l 326 365 l 178 365 l 160 0 m 333 486 l 354 876 l 263 876 q 203 818 206 876 l 185 486 l 333 486 z "},"Ç":{"ha":493,"x_min":28,"x_max":476,"o":"m 438 233 l 433 169 q 268 0 425 0 l 185 0 q 36 169 28 0 l 71 828 q 236 997 79 997 l 319 997 q 468 828 476 997 l 463 715 l 332 715 l 338 818 q 282 876 340 876 l 256 876 q 201 818 204 876 l 167 179 q 215 121 164 121 l 249 121 q 303 179 300 121 l 307 233 l 438 233 m 167 -190 l 229 -190 q 267 -157 264 -190 l 267 -137 q 235 -99 269 -99 l 181 -99 l 188 36 l 258 36 l 254 -43 l 267 -43 q 338 -124 342 -43 l 335 -176 q 254 -253 331 -251 l 164 -253 l 167 -190 z "},"È":{"ha":418,"x_min":35,"x_max":411,"o":"m 35 0 l 86 997 l 411 997 l 406 876 l 211 876 l 194 574 l 367 574 l 361 453 l 189 453 l 171 121 l 365 121 l 360 0 l 35 0 m 121 1226 l 242 1226 l 294 1063 l 201 1063 l 121 1226 z "},"É":{"ha":418,"x_min":35,"x_max":411,"o":"m 35 0 l 86 997 l 411 997 l 406 876 l 211 876 l 194 574 l 367 574 l 361 453 l 189 453 l 171 121 l 365 121 l 360 0 l 35 0 m 232 1063 l 139 1063 l 211 1226 l 332 1226 l 232 1063 z "},"Ê":{"ha":418,"x_min":35,"x_max":411,"o":"m 35 0 l 86 997 l 411 997 l 406 876 l 211 876 l 194 574 l 367 574 l 361 453 l 189 453 l 171 121 l 365 121 l 360 0 l 35 0 m 242 1143 l 181 1063 l 79 1063 l 204 1218 l 285 1218 l 396 1063 l 294 1063 l 242 1143 z "},"Ë":{"ha":418,"x_min":35,"x_max":411,"o":"m 35 0 l 86 997 l 411 997 l 406 876 l 211 876 l 194 574 l 367 574 l 361 453 l 189 453 l 171 121 l 365 121 l 360 0 l 35 0 m 207 1201 l 200 1063 l 90 1063 l 97 1201 l 207 1201 m 397 1201 l 390 1063 l 281 1063 l 288 1201 l 397 1201 z "},"Ì":{"ha":253,"x_min":35,"x_max":217,"o":"m 35 0 l 86 997 l 217 997 l 165 0 l 35 0 m 39 1226 l 160 1226 l 213 1063 l 119 1063 l 39 1226 z "},"Í":{"ha":253,"x_min":35,"x_max":238,"o":"m 35 0 l 86 997 l 217 997 l 165 0 l 35 0 m 138 1063 l 44 1063 l 117 1226 l 238 1226 l 138 1063 z "},"Î":{"ha":253,"x_min":-6,"x_max":311,"o":"m 35 0 l 86 997 l 217 997 l 165 0 l 35 0 m 157 1143 l 96 1063 l -6 1063 l 119 1218 l 200 1218 l 311 1063 l 210 1063 l 157 1143 z "},"Ï":{"ha":253,"x_min":3,"x_max":310,"o":"m 35 0 l 86 997 l 217 997 l 165 0 l 35 0 m 119 1201 l 113 1063 l 3 1063 l 10 1201 l 119 1201 m 310 1201 l 303 1063 l 193 1063 l 200 1201 l 310 1201 z "},"Ð":{"ha":526,"x_min":11,"x_max":497,"o":"m 35 0 l 86 997 l 314 997 q 488 806 497 997 l 453 144 q 289 0 446 0 l 35 0 m 171 121 l 269 121 q 324 165 321 121 l 357 804 q 303 876 361 876 l 211 876 l 171 121 m 12 422 l 18 533 l 296 533 l 290 422 l 12 422 z "},"Ñ":{"ha":551,"x_min":35,"x_max":488,"o":"m 332 515 l 357 997 l 488 997 l 436 0 l 306 0 l 315 199 l 199 653 l 165 0 l 35 0 l 86 997 l 217 997 l 332 515 m 449 1194 q 411 1102 444 1133 q 336 1069 378 1071 q 310 1074 322 1069 q 288 1083 299 1078 q 269 1092 278 1088 q 250 1097 261 1097 q 215 1063 224 1097 l 149 1063 q 181 1151 151 1122 q 253 1183 211 1181 q 276 1179 267 1183 q 297 1169 286 1175 q 319 1160 308 1164 q 342 1156 331 1156 q 365 1167 356 1158 q 378 1194 375 1176 l 449 1194 z "},"Ò":{"ha":547,"x_min":28,"x_max":518,"o":"m 186 0 q 36 169 28 0 l 71 826 q 236 997 79 997 l 361 997 q 510 826 518 997 l 475 169 q 308 0 467 0 l 186 0 m 222 121 l 289 121 q 344 179 342 121 l 379 818 q 324 876 382 876 l 261 876 q 201 818 204 876 l 167 179 q 222 121 164 121 m 175 1226 l 296 1226 l 349 1063 l 256 1063 l 175 1226 z "},"Ó":{"ha":547,"x_min":28,"x_max":518,"o":"m 186 0 q 36 169 28 0 l 71 826 q 236 997 79 997 l 361 997 q 510 826 518 997 l 475 169 q 308 0 467 0 l 186 0 m 222 121 l 289 121 q 344 179 342 121 l 379 818 q 324 876 382 876 l 261 876 q 201 818 204 876 l 167 179 q 222 121 164 121 m 294 1063 l 201 1063 l 274 1226 l 394 1226 l 294 1063 z "},"Ô":{"ha":547,"x_min":28,"x_max":518,"o":"m 186 0 q 36 169 28 0 l 71 826 q 236 997 79 997 l 361 997 q 510 826 518 997 l 475 169 q 308 0 467 0 l 186 0 m 222 121 l 289 121 q 344 179 342 121 l 379 818 q 324 876 382 876 l 261 876 q 201 818 204 876 l 167 179 q 222 121 164 121 m 301 1143 l 240 1063 l 139 1063 l 264 1218 l 344 1218 l 456 1063 l 354 1063 l 301 1143 z "},"Õ":{"ha":547,"x_min":28,"x_max":518,"o":"m 186 0 q 36 169 28 0 l 71 826 q 236 997 79 997 l 361 997 q 510 826 518 997 l 475 169 q 308 0 467 0 l 186 0 m 222 121 l 289 121 q 344 179 342 121 l 379 818 q 324 876 382 876 l 261 876 q 201 818 204 876 l 167 179 q 222 121 164 121 m 440 1194 q 403 1102 436 1133 q 328 1069 369 1071 q 302 1074 314 1069 q 280 1083 290 1078 q 261 1092 269 1088 q 242 1097 253 1097 q 207 1063 215 1097 l 140 1063 q 173 1151 143 1122 q 244 1183 203 1181 q 268 1179 258 1183 q 289 1169 278 1175 q 311 1160 300 1164 q 333 1156 322 1156 q 357 1167 347 1158 q 369 1194 367 1176 l 440 1194 z "},"Ö":{"ha":547,"x_min":28,"x_max":518,"o":"m 186 0 q 36 169 28 0 l 71 826 q 236 997 79 997 l 361 997 q 510 826 518 997 l 475 169 q 308 0 467 0 l 186 0 m 222 121 l 289 121 q 344 179 342 121 l 379 818 q 324 876 382 876 l 261 876 q 201 818 204 876 l 167 179 q 222 121 164 121 m 260 1201 l 253 1063 l 143 1063 l 150 1201 l 260 1201 m 450 1201 l 443 1063 l 333 1063 l 340 1201 l 450 1201 z "},"×":{"ha":514,"x_min":46,"x_max":464,"o":"m 464 575 l 382 664 l 260 533 l 143 675 l 50 589 l 181 457 l 46 340 l 129 251 l 251 381 l 371 240 l 461 326 l 331 457 l 464 575 z "},"Ø":{"ha":547,"x_min":29,"x_max":517,"o":"m 439 1081 l 418 990 q 510 826 517 963 l 475 169 q 308 0 467 0 l 186 0 l 185 0 l 165 -83 l 104 -83 l 125 7 q 36 169 29 36 l 71 826 q 236 997 79 997 l 358 997 l 378 1081 l 439 1081 m 379 821 l 213 121 l 289 121 q 344 179 342 121 l 379 821 m 168 189 l 329 876 l 261 876 q 201 818 204 876 l 168 189 z "},"Ù":{"ha":547,"x_min":35,"x_max":511,"o":"m 511 997 l 469 189 q 301 0 460 0 l 192 0 q 44 190 35 0 l 86 997 l 217 997 l 175 186 q 228 121 171 121 l 282 121 q 339 186 335 121 l 381 997 l 511 997 m 179 1226 l 300 1226 l 353 1063 l 260 1063 l 179 1226 z "},"Ú":{"ha":547,"x_min":35,"x_max":511,"o":"m 511 997 l 469 189 q 301 0 460 0 l 192 0 q 44 190 35 0 l 86 997 l 217 997 l 175 186 q 228 121 171 121 l 282 121 q 339 186 335 121 l 381 997 l 511 997 m 283 1063 l 190 1063 l 263 1226 l 383 1226 l 283 1063 z "},"Û":{"ha":547,"x_min":35,"x_max":511,"o":"m 511 997 l 469 189 q 301 0 460 0 l 192 0 q 44 190 35 0 l 86 997 l 217 997 l 175 186 q 228 121 171 121 l 282 121 q 339 186 335 121 l 381 997 l 511 997 m 301 1143 l 240 1063 l 139 1063 l 264 1218 l 344 1218 l 456 1063 l 354 1063 l 301 1143 z "},"Ü":{"ha":547,"x_min":35,"x_max":511,"o":"m 511 997 l 469 189 q 301 0 460 0 l 192 0 q 44 190 35 0 l 86 997 l 217 997 l 175 186 q 228 121 171 121 l 282 121 q 339 186 335 121 l 381 997 l 511 997 m 264 1201 l 257 1063 l 147 1063 l 154 1201 l 264 1201 m 454 1201 l 447 1063 l 338 1063 l 344 1201 l 454 1201 z "},"Ý":{"ha":476,"x_min":39,"x_max":489,"o":"m 279 0 l 149 0 l 168 367 l 39 997 l 168 997 l 244 564 l 249 564 l 360 997 l 489 997 l 299 367 l 279 0 m 249 1063 l 156 1063 l 228 1226 l 349 1226 l 249 1063 z "},"Þ":{"ha":513,"x_min":35,"x_max":489,"o":"m 207 831 l 333 831 q 481 660 489 831 l 471 481 q 303 313 461 313 l 181 313 l 165 0 l 35 0 l 86 997 l 215 997 l 207 831 m 188 433 l 286 433 q 340 492 338 433 l 349 651 q 293 710 351 710 l 201 710 l 188 433 z "},"ß":{"ha":589,"x_min":35,"x_max":535,"o":"m 222 121 l 331 121 q 385 179 382 121 l 396 376 q 353 431 399 431 l 267 431 l 276 624 l 324 624 q 364 663 361 624 l 371 815 q 319 876 375 876 l 265 876 q 208 815 213 876 l 167 0 l 35 0 l 78 831 q 236 997 86 997 l 354 997 q 503 828 511 997 l 494 672 q 393 531 488 538 l 392 524 q 528 372 535 519 l 515 142 q 360 0 508 0 l 217 0 l 222 121 z "},"à":{"ha":519,"x_min":28,"x_max":490,"o":"m 158 0 l 28 0 l 71 826 q 236 997 79 997 l 333 997 q 482 826 490 997 l 439 0 l 308 0 l 326 365 l 176 365 l 158 0 m 333 486 l 351 818 q 297 876 354 876 l 261 876 q 201 818 204 876 l 183 486 l 333 486 m 169 1236 l 290 1236 l 343 1072 l 250 1072 l 169 1236 z "},"á":{"ha":519,"x_min":28,"x_max":490,"o":"m 158 0 l 28 0 l 71 826 q 236 997 79 997 l 333 997 q 482 826 490 997 l 439 0 l 308 0 l 326 365 l 176 365 l 158 0 m 333 486 l 351 818 q 297 876 354 876 l 261 876 q 201 818 204 876 l 183 486 l 333 486 m 278 1072 l 185 1072 l 257 1236 l 378 1236 l 278 1072 z "},"â":{"ha":519,"x_min":28,"x_max":490,"o":"m 158 0 l 28 0 l 71 826 q 236 997 79 997 l 333 997 q 482 826 490 997 l 439 0 l 308 0 l 326 365 l 176 365 l 158 0 m 333 486 l 351 818 q 297 876 354 876 l 261 876 q 201 818 204 876 l 183 486 l 333 486 m 158 0 l 28 0 l 71 826 q 236 997 79 997 l 333 997 q 482 826 490 997 l 439 0 l 308 0 l 326 365 l 176 365 l 158 0 m 333 486 l 351 818 q 297 876 354 876 l 261 876 q 201 818 204 876 l 183 486 l 333 486 m 290 1153 l 229 1072 l 128 1072 l 253 1228 l 333 1228 l 444 1072 l 343 1072 l 290 1153 z "},"ã":{"ha":519,"x_min":28,"x_max":490,"o":"m 158 0 l 28 0 l 71 826 q 236 997 79 997 l 333 997 q 482 826 490 997 l 439 0 l 308 0 l 326 365 l 176 365 l 158 0 m 333 486 l 351 818 q 297 876 354 876 l 261 876 q 201 818 204 876 l 183 486 l 333 486 m 433 1190 q 396 1098 429 1129 q 321 1065 363 1067 q 295 1069 307 1065 q 273 1078 283 1074 q 254 1088 263 1083 q 235 1093 246 1093 q 200 1058 208 1093 l 133 1058 q 166 1147 136 1118 q 238 1179 196 1176 q 261 1175 251 1179 q 282 1165 271 1171 q 304 1156 293 1160 q 326 1151 315 1151 q 350 1163 340 1154 q 363 1190 360 1172 l 433 1190 z "},"ä":{"ha":519,"x_min":28,"x_max":490,"o":"m 158 0 l 28 0 l 71 826 q 236 997 79 997 l 333 997 q 482 826 490 997 l 439 0 l 308 0 l 326 365 l 176 365 l 158 0 m 333 486 l 351 818 q 297 876 354 876 l 261 876 q 201 818 204 876 l 183 486 l 333 486 m 246 1197 l 239 1058 l 129 1058 l 136 1197 l 246 1197 m 436 1197 l 429 1058 l 319 1058 l 326 1197 l 436 1197 z "},"å":{"ha":519,"x_min":28,"x_max":490,"o":"m 158 0 l 28 0 l 71 826 q 236 997 79 997 l 333 997 q 482 826 490 997 l 439 0 l 308 0 l 326 365 l 176 365 l 158 0 m 333 486 l 351 818 q 297 876 354 876 l 261 876 q 201 818 204 876 l 183 486 l 333 486 m 399 1129 q 368 1053 397 1083 q 296 1022 339 1022 q 224 1053 256 1022 q 193 1129 192 1083 q 224 1207 192 1176 q 296 1238 256 1238 q 368 1207 339 1238 q 399 1129 397 1176 m 343 1129 q 328 1164 342 1150 q 296 1178 315 1178 q 263 1164 276 1178 q 251 1129 250 1150 q 263 1094 250 1108 q 296 1081 276 1081 q 328 1094 315 1081 q 343 1129 342 1108 z "},"æ":{"ha":693,"x_min":28,"x_max":685,"o":"m 160 0 l 28 0 l 71 826 q 236 997 79 997 l 685 997 l 679 876 l 485 876 l 468 574 l 640 574 l 635 453 l 463 453 l 444 121 l 639 121 l 633 0 l 308 0 l 326 365 l 178 365 l 160 0 m 333 486 l 354 876 l 263 876 q 203 818 206 876 l 185 486 l 333 486 z "},"ç":{"ha":493,"x_min":28,"x_max":476,"o":"m 438 233 l 433 169 q 268 0 425 0 l 185 0 q 36 169 28 0 l 71 828 q 236 997 79 997 l 319 997 q 468 828 476 997 l 463 715 l 332 715 l 338 818 q 282 876 340 876 l 256 876 q 201 818 204 876 l 167 179 q 215 121 164 121 l 249 121 q 303 179 300 121 l 307 233 l 438 233 m 161 -190 l 224 -190 q 261 -157 258 -190 l 261 -137 q 229 -99 264 -99 l 175 -99 l 182 36 l 253 36 l 249 -43 l 261 -43 q 332 -124 336 -43 l 329 -176 q 249 -253 325 -251 l 158 -253 l 161 -190 z "},"è":{"ha":418,"x_min":35,"x_max":411,"o":"m 35 0 l 86 997 l 411 997 l 406 876 l 211 876 l 194 574 l 367 574 l 361 453 l 189 453 l 171 121 l 365 121 l 360 0 l 35 0 m 131 1208 l 251 1208 l 304 1044 l 211 1044 l 131 1208 z "},"é":{"ha":418,"x_min":35,"x_max":411,"o":"m 35 0 l 86 997 l 411 997 l 406 876 l 211 876 l 194 574 l 367 574 l 361 453 l 189 453 l 171 121 l 365 121 l 360 0 l 35 0 m 250 1072 l 157 1072 l 229 1236 l 350 1236 l 250 1072 z "},"ê":{"ha":418,"x_min":35,"x_max":411,"o":"m 35 0 l 86 997 l 411 997 l 406 876 l 211 876 l 194 574 l 367 574 l 361 453 l 189 453 l 171 121 l 365 121 l 360 0 l 35 0 m 249 1139 l 188 1058 l 86 1058 l 211 1214 l 292 1214 l 403 1058 l 301 1058 l 249 1139 z "},"ë":{"ha":418,"x_min":35,"x_max":411,"o":"m 35 0 l 86 997 l 411 997 l 406 876 l 211 876 l 194 574 l 367 574 l 361 453 l 189 453 l 171 121 l 365 121 l 360 0 l 35 0 m 217 1199 l 210 1060 l 100 1060 l 107 1199 l 217 1199 m 407 1199 l 400 1060 l 290 1060 l 297 1199 l 407 1199 z "},"ì":{"ha":253,"x_min":35,"x_max":217,"o":"m 35 0 l 86 997 l 217 997 l 165 0 l 35 0 m 43 1222 l 164 1222 l 217 1058 l 124 1058 l 43 1222 z "},"í":{"ha":253,"x_min":35,"x_max":242,"o":"m 35 0 l 86 997 l 217 997 l 165 0 l 35 0 m 142 1061 l 49 1061 l 121 1225 l 242 1225 l 142 1061 z "},"î":{"ha":253,"x_min":-12,"x_max":304,"o":"m 35 0 l 86 997 l 217 997 l 165 0 l 35 0 m 150 1143 l 89 1063 l -12 1063 l 113 1218 l 193 1218 l 304 1063 l 203 1063 l 150 1143 z "},"ï":{"ha":253,"x_min":-1,"x_max":306,"o":"m 35 0 l 86 997 l 217 997 l 165 0 l 35 0 m 115 1197 l 108 1058 l -1 1058 l 6 1197 l 115 1197 m 306 1197 l 299 1058 l 189 1058 l 196 1197 l 306 1197 z "},"ð":{"ha":526,"x_min":14,"x_max":497,"o":"m 35 0 l 86 997 l 314 997 q 488 806 497 997 l 453 144 q 289 0 446 0 l 35 0 m 171 121 l 269 121 q 324 165 321 121 l 357 804 q 303 876 361 876 l 211 876 l 171 121 m 14 424 l 20 535 l 290 535 l 284 424 l 14 424 z "},"ñ":{"ha":524,"x_min":35,"x_max":488,"o":"m 332 515 l 357 997 l 488 997 l 436 0 l 306 0 l 315 199 l 199 653 l 165 0 l 35 0 l 86 997 l 217 997 l 332 515 m 436 1190 q 399 1098 432 1129 q 324 1065 365 1067 q 298 1069 310 1065 q 276 1078 286 1074 q 257 1088 265 1083 q 238 1093 249 1093 q 203 1058 211 1093 l 136 1058 q 169 1147 139 1118 q 240 1179 199 1176 q 264 1175 254 1179 q 285 1165 274 1171 q 307 1156 296 1160 q 329 1151 318 1151 q 353 1163 343 1154 q 365 1190 363 1172 l 436 1190 z "},"ò":{"ha":547,"x_min":28,"x_max":518,"o":"m 186 0 q 36 169 28 0 l 71 826 q 236 997 79 997 l 361 997 q 510 826 518 997 l 475 169 q 308 0 467 0 l 186 0 m 222 121 l 289 121 q 344 179 342 121 l 379 818 q 324 876 382 876 l 261 876 q 201 818 204 876 l 167 179 q 222 121 164 121 m 172 1222 l 293 1222 l 346 1058 l 253 1058 l 172 1222 z "},"ó":{"ha":547,"x_min":28,"x_max":518,"o":"m 186 0 q 36 169 28 0 l 71 826 q 236 997 79 997 l 361 997 q 510 826 518 997 l 475 169 q 308 0 467 0 l 186 0 m 222 121 l 289 121 q 344 179 342 121 l 379 818 q 324 876 382 876 l 261 876 q 201 818 204 876 l 167 179 q 222 121 164 121 m 294 1058 l 201 1058 l 274 1222 l 394 1222 l 294 1058 z "},"ô":{"ha":547,"x_min":28,"x_max":518,"o":"m 186 0 q 36 169 28 0 l 71 826 q 236 997 79 997 l 361 997 q 510 826 518 997 l 475 169 q 308 0 467 0 l 186 0 m 222 121 l 289 121 q 344 179 342 121 l 379 818 q 324 876 382 876 l 261 876 q 201 818 204 876 l 167 179 q 222 121 164 121 m 297 1139 l 236 1058 l 135 1058 l 260 1214 l 340 1214 l 451 1058 l 350 1058 l 297 1139 z "},"õ":{"ha":547,"x_min":28,"x_max":518,"o":"m 186 0 q 36 169 28 0 l 71 826 q 236 997 79 997 l 361 997 q 510 826 518 997 l 475 169 q 308 0 467 0 l 186 0 m 222 121 l 289 121 q 344 179 342 121 l 379 818 q 324 876 382 876 l 261 876 q 201 818 204 876 l 167 179 q 222 121 164 121 m 440 1190 q 403 1098 436 1129 q 328 1065 369 1067 q 302 1069 314 1065 q 280 1078 290 1074 q 261 1088 269 1083 q 242 1093 253 1093 q 207 1058 215 1093 l 140 1058 q 173 1147 143 1118 q 244 1179 203 1176 q 268 1175 258 1179 q 289 1165 278 1171 q 311 1156 300 1160 q 333 1151 322 1151 q 357 1163 347 1154 q 369 1190 367 1172 l 440 1190 z "},"ö":{"ha":547,"x_min":28,"x_max":518,"o":"m 186 0 q 36 169 28 0 l 71 826 q 236 997 79 997 l 361 997 q 510 826 518 997 l 475 169 q 308 0 467 0 l 186 0 m 222 121 l 289 121 q 344 179 342 121 l 379 818 q 324 876 382 876 l 261 876 q 201 818 204 876 l 167 179 q 222 121 164 121 m 263 1197 l 256 1058 l 146 1058 l 153 1197 l 263 1197 m 453 1197 l 446 1058 l 336 1058 l 343 1197 l 453 1197 z "},"÷":{"ha":600,"x_min":31,"x_max":568,"o":"m 386 804 l 376 633 l 238 633 l 247 804 l 386 804 m 361 328 l 351 157 l 213 157 l 222 328 l 361 328 m 31 417 l 38 536 l 568 536 l 561 417 l 31 417 z "},"ø":{"ha":547,"x_min":29,"x_max":517,"o":"m 439 1081 l 418 990 q 510 826 517 963 l 475 169 q 308 0 467 0 l 186 0 l 185 0 l 165 -83 l 104 -83 l 125 7 q 36 169 29 36 l 71 826 q 236 997 79 997 l 358 997 l 378 1081 l 439 1081 m 379 821 l 213 121 l 289 121 q 344 179 342 121 l 379 821 m 168 189 l 329 876 l 261 876 q 201 818 204 876 l 168 189 z "},"ù":{"ha":547,"x_min":35,"x_max":511,"o":"m 511 997 l 469 189 q 301 0 460 0 l 192 0 q 44 190 35 0 l 86 997 l 217 997 l 175 186 q 228 121 171 121 l 282 121 q 339 186 335 121 l 381 997 l 511 997 m 150 1208 l 271 1208 l 324 1044 l 231 1044 l 150 1208 z "},"ú":{"ha":547,"x_min":35,"x_max":511,"o":"m 511 997 l 469 189 q 301 0 460 0 l 192 0 q 44 190 35 0 l 86 997 l 217 997 l 175 186 q 228 121 171 121 l 282 121 q 339 186 335 121 l 381 997 l 511 997 m 300 1044 l 207 1044 l 279 1208 l 400 1208 l 300 1044 z "},"û":{"ha":547,"x_min":35,"x_max":511,"o":"m 511 997 l 469 189 q 301 0 460 0 l 192 0 q 44 190 35 0 l 86 997 l 217 997 l 175 186 q 228 121 171 121 l 282 121 q 339 186 335 121 l 381 997 l 511 997 m 296 1139 l 235 1058 l 133 1058 l 258 1214 l 339 1214 l 450 1058 l 349 1058 l 296 1139 z "},"ü":{"ha":547,"x_min":35,"x_max":511,"o":"m 511 997 l 469 189 q 301 0 460 0 l 192 0 q 44 190 35 0 l 86 997 l 217 997 l 175 186 q 228 121 171 121 l 282 121 q 339 186 335 121 l 381 997 l 511 997 m 263 1197 l 256 1058 l 146 1058 l 153 1197 l 263 1197 m 453 1197 l 446 1058 l 336 1058 l 343 1197 l 453 1197 z "},"ý":{"ha":476,"x_min":39,"x_max":489,"o":"m 279 0 l 149 0 l 168 367 l 39 997 l 168 997 l 244 564 l 249 564 l 360 997 l 489 997 l 299 367 l 279 0 m 251 1044 l 158 1044 l 231 1208 l 351 1208 l 251 1044 z "},"þ":{"ha":513,"x_min":35,"x_max":489,"o":"m 207 831 l 333 831 q 481 660 489 831 l 471 481 q 303 313 461 313 l 181 313 l 165 0 l 35 0 l 86 997 l 215 997 l 207 831 m 188 433 l 286 433 q 340 492 338 433 l 349 651 q 293 710 351 710 l 201 710 l 188 433 z "},"ÿ":{"ha":476,"x_min":39,"x_max":489,"o":"m 279 0 l 149 0 l 168 367 l 39 997 l 168 997 l 244 564 l 249 564 l 360 997 l 489 997 l 299 367 l 279 0 m 228 1197 l 221 1058 l 111 1058 l 118 1197 l 228 1197 m 418 1197 l 411 1058 l 301 1058 l 308 1197 l 418 1197 z "},"ı":{"ha":253,"x_min":35,"x_max":217,"o":"m 35 0 l 86 997 l 217 997 l 165 0 l 35 0 z "},"Ł":{"ha":378,"x_min":10,"x_max":357,"o":"m 299 625 l 294 531 l 196 469 l 178 121 l 357 121 l 351 0 l 42 0 l 61 385 l 10 353 l 15 447 l 67 479 l 93 997 l 224 997 l 201 564 l 299 625 z "},"ˇ":{"ha":436,"x_min":63,"x_max":379,"o":"m 217 856 l 278 936 l 379 936 l 254 781 l 174 781 l 63 936 l 164 936 l 217 856 z "},"˘":{"ha":369,"x_min":51,"x_max":324,"o":"m 131 935 q 147 881 136 899 q 185 863 158 863 q 222 881 207 863 q 243 935 238 899 l 324 935 q 265 817 308 854 q 181 781 222 781 q 94 817 133 781 q 51 935 54 854 l 131 935 z "},"˙":{"ha":217,"x_min":32,"x_max":181,"o":"m 181 950 l 171 781 l 32 781 l 42 950 l 181 950 z "},"˚":{"ha":293,"x_min":64,"x_max":271,"o":"m 271 851 q 240 775 269 806 q 168 744 211 744 q 96 775 128 744 q 65 851 64 806 q 96 929 64 899 q 168 960 128 960 q 240 929 211 960 q 271 851 269 899 m 215 851 q 201 886 214 872 q 168 900 188 900 q 135 886 149 900 q 124 851 122 872 q 135 817 122 831 q 168 803 149 803 q 201 817 188 803 q 215 851 214 831 z "},"˛":{"ha":297,"x_min":44,"x_max":247,"o":"m 247 33 q 164 -44 186 -12 q 139 -108 142 -75 q 183 -154 138 -154 q 247 -133 211 -154 l 242 -229 q 160 -247 203 -247 q 77 -216 110 -247 q 47 -133 44 -185 q 52 -95 47 -114 q 70 -57 57 -76 q 106 -15 83 -37 q 165 33 128 8 l 247 33 z "},"˝":{"ha":464,"x_min":44,"x_max":418,"o":"m 418 964 l 301 964 l 215 781 l 301 781 l 418 964 m 246 964 l 129 964 l 44 781 l 129 781 l 246 964 z "},"⁄":{"ha":413,"x_min":-29,"x_max":442,"o":"m 442 1081 l 343 1081 l -29 -83 l 67 -83 l 442 1081 z "},"−":{"ha":464,"x_min":51,"x_max":411,"o":"m 51 417 l 58 535 l 411 535 l 404 417 l 51 417 z "},"ł":{"ha":378,"x_min":10,"x_max":357,"o":"m 299 625 l 294 531 l 196 469 l 178 121 l 357 121 l 351 0 l 42 0 l 61 385 l 10 353 l 15 447 l 67 479 l 93 997 l 224 997 l 201 564 l 299 625 z "},"ﬁ":{"ha":644,"x_min":35,"x_max":608,"o":"m 426 0 l 472 876 l 211 876 l 194 574 l 365 574 l 360 453 l 189 453 l 165 0 l 35 0 l 86 997 l 478 997 l 608 997 l 557 0 l 426 0 z "},"ﬂ":{"ha":778,"x_min":35,"x_max":743,"o":"m 738 0 l 426 0 l 472 876 l 211 876 l 194 574 l 367 574 l 361 453 l 189 453 l 165 0 l 35 0 l 86 997 l 478 997 l 608 997 l 563 121 l 743 121 l 738 0 z "}}}
